<?xml version="1.0" encoding="UTF-8" standalone="no"?>
<!-- Created with Inkscape (http://www.inkscape.org/) -->
<svg
   xmlns:svg="http://www.w3.org/2000/svg"
   xmlns="http://www.w3.org/2000/svg"
   version="1.0"
   width="125"
   height="90"
   id="svg2">
  <defs
     id="defs4" />
  <g
     transform="translate(-282.81216,-402.41884)"
     id="layer1">
    <g
       transform="matrix(0.1702265,0,0,0.1702265,601.87358,171.39846)"
       id="g2399">
      <g
         transform="matrix(5.8777395,0,0,5.8777395,-1902.4862,1345.9353)"
         id="g2182">
        <path
           d="M 91.417,4.372 L 79.249,4.032 L 82.799,7.599 L 81.953,13.035 L 91.417,4.372 z M 81.615,7.939 C 65.052,12.186 12.662,20.68 13.338,54.655 C 14.014,90.5 68.771,90.33 68.602,89.99 C 68.433,89.822 23.478,86.084 20.943,55.506 C 20.306,48.945 23.124,40.576 31.222,33.379 C 31.746,32.833 32.269,32.385 32.774,32.063 C 32.235,32.497 31.721,32.936 31.222,33.379 C 27.884,36.855 24.507,44.672 25.676,54.656 C 28.718,78.099 63.195,79.459 63.026,79.119 C 63.026,79.119 34.971,75.721 32.267,54.147 C 28.548,25.776 81.615,7.939 81.615,7.939 z"
           id="path5"
           style="fill:#cbccce;fill-rule:evenodd" />
        <path
           d="M 127.415,22.403 L 127.077,22.403 C 127.077,22.403 112.875,20.077 112.67,20.044 C 112.638,19.839 110.321,5.539 110.321,5.539 L 110.323,5.223 L 110.046,5.158 L 109.877,5.498 C 109.877,5.498 107.548,19.84 107.515,20.045 C 107.31,20.079 93.084,22.406 93.084,22.406 L 92.77,22.404 L 92.705,22.68 L 93.043,22.85 C 93.043,22.85 107.311,25.192 107.516,25.225 C 107.548,25.43 109.865,39.731 109.865,39.731 L 110.048,40.112 L 110.325,40.047 L 110.325,39.707 C 110.325,39.707 112.418,26.791 112.65,25.36 L 110.178,22.729 L 110.178,38.792 C 110.131,39.079 110.101,39.271 110.09,39.335 C 109.995,38.746 107.77,24.971 107.77,24.971 L 107.769,24.971 L 110.076,22.653 L 110.079,22.656 L 110.095,22.64 L 110.089,22.634 L 110.179,22.55 L 112.418,20.3 C 112.421,20.3 123.527,22.117 126.174,22.55 L 110.348,22.55 L 112.837,25.199 C 114.414,24.941 127.103,22.864 127.103,22.864 L 127.483,22.68 L 127.415,22.403 z M 94.001,22.549 C 96.424,22.153 106.184,20.558 107.595,20.327 L 109.964,22.549 L 94.001,22.549 z M 110.177,22.349 L 107.798,20.118 C 108.057,18.52 109.989,6.593 110.093,5.949 C 110.104,6.017 110.133,6.198 110.177,6.467 L 110.177,22.349 z"
           id="path7"
           style="fill:#0097d5" />
        <path
           d="M 36.5,37.84375 L 25.34375,61.4375 L 29.90625,61.4375 L 32.59375,54.3125 L 41.71875,54.3125 L 44.25,61.4375 L 50,61.4375 L 40.375,37.84375 L 36.5,37.84375 z M 37.34375,42.59375 L 40.71875,51.59375 L 33.78125,51.59375 L 37.34375,42.59375 z"
           id="path2176" />
        <path
           d="M 89.39,47.521 C 85.502,45.652 84.489,45.143 84.489,43.274 C 84.489,41.575 85.841,40.386 88.376,40.386 C 90.235,40.386 91.757,40.895 92.771,41.405 C 93.785,41.915 94.63,42.594 94.968,42.594 L 95.306,42.424 L 95.306,41.065 L 94.968,38.857 C 94.968,38.517 94.968,38.347 94.63,38.177 C 94.292,38.007 91.757,37.498 89.222,37.498 C 83.814,37.498 79.757,39.876 79.757,44.293 C 79.757,48.54 83.307,50.069 87.025,51.768 C 90.236,53.127 91.588,53.637 91.588,55.505 C 91.588,57.204 90.405,58.734 87.363,58.734 C 86.518,58.734 84.659,58.734 81.955,57.205 C 81.279,57.035 79.927,56.016 79.589,56.185 L 79.42,56.355 C 79.082,56.355 79.251,57.375 79.251,57.714 L 79.589,60.261 C 79.758,60.771 79.758,60.771 80.266,60.941 C 81.955,61.451 84.997,61.961 86.857,61.961 C 92.434,61.961 96.321,58.565 96.321,54.486 C 96.318,50.579 93.276,49.22 89.39,47.521 z"
           id="path2172" />
        <path
           d="M 60.8125,37.65625 C 57.939499,37.656249 55.41575,37.84375 53.21875,37.84375 L 53.21875,61.4375 L 59.96875,61.4375 C 61.82775,61.437501 67.58875,61.44525 70.96875,59.40625 C 73.672753,57.709249 76.375,54.312 76.375,48.875 C 76.374998,37.663001 66.06175,37.65625 62.34375,37.65625 L 60.8125,37.65625 z M 58.28125,40.5625 L 61.84375,40.5625 C 69.111749,40.562499 70.96875,43.939 70.96875,49.375 C 70.968753,57.529998 66.57,58.5625 61.5,58.5625 L 58.28125,58.5625 L 58.28125,40.5625 z"
           id="path2170" />
        <path
           d="M 12.155,50.409 L 22.801,50.409 L 22.801,47.521 L 12.155,47.521 L 12.155,40.726 L 23.985,40.726 L 23.985,37.838 L 6.916,37.838 L 6.916,61.451 L 24.154,61.451 L 24.154,58.224 L 12.155,58.224 L 12.155,50.409 z"
           id="path9" />
      </g>
    </g>
  </g>
</svg>
