<?xml version="1.0" encoding="utf-8"?>
<!-- Generator: Adobe Illustrator 19.2.1, SVG Export Plug-In . SVG Version: 6.00 Build 0)  -->
<svg version="1.1" id="layer" xmlns="http://www.w3.org/2000/svg" xmlns:xlink="http://www.w3.org/1999/xlink" x="0px" y="0px"
	 viewBox="0 0 652 652" style="enable-background:new 0 0 652 652;" xml:space="preserve">
<style type="text/css">
	.st0{fill:#F58220;}
</style>
<g>
	<path d="M480.7,359.1v-14.9h-14.1c-6.8,0.1-7.3-5.4-7.3-12.8v-47.9h19.3v-14.8h-19.3v-34h-19.8v101.7c0.1,15.2,4.2,22.6,24.3,22.6
		v0H480.7z"/>
	<path class="st0" d="M620.2,279.9c-17-15.2-23.9-17.9-30.9-18.4c-7,0.4-13.9,3.2-30.9,18.4c15.2-17,17.9-24,18.3-30.9
		c-0.4-6.9-3.1-13.9-18.3-30.9c17,15.2,23.9,17.9,30.9,18.3c7-0.4,13.9-3.2,30.9-18.3c-15.2,17-17.9,24-18.3,30.9
		C602.2,255.9,605,262.9,620.2,279.9"/>
</g>
<g>
	<path d="M524.6,266.3c-28.8,0-45.3,19.8-45.3,47.2c0,27.6,16.5,47.4,45.3,47.4c28.8,0,45.3-19.8,45.3-47.4
		C569.9,286.1,553.4,266.3,524.6,266.3 M550.1,339.1h-51v-50.9h51V339.1z"/>
	<path d="M408.9,234.7v110.5h-10.8v-55.5c-1.6-16.9-19.1-23.4-35.8-23.4c-19.8,0-39.4,6.8-40.8,29.9h19.8
		c0.9-9.7,8.7-14.2,19.8-14.2c8,0,18.6,1.9,18.6,12.2c0,11.6-12.7,10.1-26.9,12.7c-13.9,1.6-28.7,4.4-33.2,18.3v-28.6
		c0-21.9-11.1-30.2-30.1-30.2c-13,0-21.5,5.7-28.1,14.9c-4-10.2-14.3-14.9-25.2-14.9c-14.2,0-21.7,6.1-27.6,14.9h-0.5v-12.5h-18.8
		v27.1c-5.7-16.9-20.2-29.6-40.1-29.6c-21.7,0-36.8,14.4-41.7,33.5v-31H87.7V281h-0.3c-5-10.1-15.3-14.8-26.6-14.8
		c-25.5,0-40.6,20.8-40.6,45c0,25.7,11.8,47.2,40.3,47.2c11.1,0,21.4-5.9,26.9-15.8h0.3v13.7c0,14.8-7.1,22.9-23.1,22.9
		c-10.1,0-19.1-1.9-21.5-13.2H23.3c1.7,21,22.1,28,40.1,28c28.3,0,44.1-13.4,44.1-40.3v-25.1c4.8,19.5,19.5,32.2,42.2,32.2
		c18.3,0,34-9.5,39.6-26.7v24.3h19.8v-53.3c0-14.9,9.4-23.3,19.6-23.3c12,0,15.8,6.6,15.8,18.9v57.7h19.8v-52.6
		c0-15.1,5.8-24,19.1-24c15.5,0,16.3,9.9,16.3,24.1v52.5h19.8v-15.1c4,11.7,16.1,17.5,29.3,17.5c10,0,21.7-2.9,29.6-9.6v0.1l0-0.1
		c0,3.9,3.1,7.1,6.9,7.3h43.3V234.7H408.9z M63.6,342.9c-16.5,0-23.6-14.9-23.6-29.7c0-14.9,6.1-31.3,23.6-31.3
		c17.2,0,24.1,14.2,24.1,29.7C87.7,326.9,81.1,342.9,63.6,342.9 M149.2,281.9c13.4,0,21.9,11.3,22.6,23.8h-46.2
		C126.1,292.3,135.5,281.9,149.2,281.9 M189.3,330.4h-17.7c-3.5,9.9-10.4,15-21.9,15c-16.5,0-24.1-12.5-24.1-26.6h63.7V330.4z
		 M378.4,328.3c0,12.5-13.5,17-22.2,17c-7,0-18.2-2.6-18.2-11.5c0-10.4,7.7-13.6,16.2-14.9c8.7-1.5,18.2-1.4,24.3-5.4V328.3z"/>
	<path class="st0" d="M213.8,413.6c-0.7,0.4-1.6,0.7-2.9,0.7c-2.1,0-3.4-1.1-3.4-3.7c-2.2,2.6-5.2,3.7-8.5,3.7c-4.4,0-8-2-8-6.8
		c0-5.5,4.1-6.7,8.2-7.4c4.4-0.8,8.2-0.6,8.2-3.6c0-3.5-2.9-4-5.4-4c-3.4,0-5.9,1-6,4.6h-4c0.2-6,4.9-8.1,10.3-8.1
		c4.4,0,9.1,1,9.1,6.7V408c0,1.9,0,2.7,1.3,2.7c0.3,0,0.7,0,1.2-0.2V413.6z M207.3,401.2c-1.5,1.1-4.6,1.2-7.2,1.6
		c-2.6,0.5-4.9,1.4-4.9,4.4c0,2.6,2.2,3.6,4.7,3.6c5.2,0,7.4-3.3,7.4-5.5V401.2z"/>
	<polygon class="st0" points="238.8,384 227.6,384 227.6,380.3 254.4,380.3 254.4,384 243.2,384 243.2,413.7 238.8,413.7 	"/>
	<path class="st0" d="M257.4,380.2h4V393h0.1c1.3-2.9,4.7-4.1,7.6-4.1c6.4,0,8.3,3.7,8.3,8.9v15.9h-4v-16.4c0-3-1.9-4.9-4.9-4.9
		c-4.8,0-7.2,3.2-7.2,7.6v13.7h-4V380.2z"/>
	<path class="st0" d="M304.9,413.6c-0.7,0.4-1.6,0.7-2.9,0.7c-2.1,0-3.4-1.1-3.4-3.7c-2.2,2.6-5.2,3.7-8.5,3.7c-4.4,0-8-2-8-6.8
		c0-5.5,4.1-6.7,8.2-7.4c4.4-0.8,8.2-0.6,8.2-3.6c0-3.5-2.9-4-5.4-4c-3.4,0-5.9,1-6,4.6h-4c0.2-6,4.9-8.1,10.3-8.1
		c4.4,0,9.1,1,9.1,6.7V408c0,1.9,0,2.7,1.3,2.7c0.3,0,0.7,0,1.2-0.2V413.6z M298.5,401.2c-1.5,1.1-4.5,1.2-7.2,1.6
		c-2.6,0.5-4.9,1.4-4.9,4.4c0,2.6,2.3,3.6,4.7,3.6c5.2,0,7.4-3.3,7.4-5.5V401.2z"/>
	<rect x="308.9" y="380.2" class="st0" width="4" height="33.5"/>
	<path class="st0" d="M339.7,406c-1.1,5.3-4.9,8.3-10.4,8.3c-7.7,0-11.4-5.3-11.6-12.8c0-7.3,4.8-12.6,11.4-12.6
		c8.6,0,11.2,8,11,13.9H322c-0.1,4.2,2.2,8,7.5,8c3.3,0,5.6-1.6,6.3-4.7H339.7z M335.9,399.3c-0.2-3.8-3.1-6.8-7-6.8
		c-4.2,0-6.7,3.1-6.9,6.8H335.9z"/>
	<path class="st0" d="M346.6,406.1c0.1,3.6,3.2,4.7,6.5,4.7c2.5,0,5.9-0.6,5.9-3.6c0-3.1-3.9-3.6-7.9-4.5c-3.9-0.9-7.9-2.2-7.9-6.8
		c0-4.9,4.8-6.9,9.1-6.9c5.3,0,9.6,1.7,9.9,7.6h-4c-0.3-3.1-3-4.1-5.6-4.1c-2.4,0-5.2,0.7-5.2,3.1c0,2.9,4.2,3.3,7.9,4.2
		c4,0.9,7.9,2.2,7.9,6.9c0,5.8-5.4,7.6-10.3,7.6c-5.4,0-10-2.2-10.3-8.2H346.6z"/>
	<path class="st0" d="M397.1,397.3c-0.6-3.1-2.7-4.8-6-4.8c-5.8,0-7.5,4.5-7.5,9.5c0,4.5,2,8.9,7.1,8.9c3.9,0,6.1-2.2,6.7-5.9h4.1
		c-0.9,5.9-4.6,9.4-10.7,9.4c-7.4,0-11.3-5.2-11.3-12.4c0-7.3,3.7-13,11.4-13c5.5,0,9.9,2.6,10.5,8.3H397.1z"/>
	<path class="st0" d="M416.3,388.9c7.7,0,11.8,5.6,11.8,12.7c0,7.1-4.1,12.7-11.8,12.7c-7.7,0-11.8-5.6-11.8-12.7
		C404.5,394.5,408.6,388.9,416.3,388.9 M416.3,410.8c4.2,0,7.5-3.3,7.5-9.1c0-5.9-3.4-9.2-7.5-9.2c-4.2,0-7.6,3.3-7.6,9.2
		C408.7,407.5,412.1,410.8,416.3,410.8"/>
	<path class="st0" d="M432.7,389.5h3.7v3.6h0.1c1.8-2.7,4.5-4.1,7.8-4.1c3,0,5.7,1.2,6.7,4.1c1.6-2.6,4.5-4.1,7.6-4.1
		c4.8,0,8.1,2,8.1,7v17.8h-4v-15.9c0-3-0.8-5.4-4.7-5.4c-3.8,0-6.3,2.4-6.3,6.2v15.1h-4v-15.9c0-3.1-1-5.4-4.5-5.4
		c-4.7,0-6.5,4.4-6.5,6.2v15.1h-4V389.5z"/>
	<path class="st0" d="M472.9,389.5h4v3.3h0.1c1.3-2.7,4.4-3.8,7.7-3.8c7.5,0,11.2,5.9,11.2,12.7c0,6.8-3.7,12.6-11.1,12.6
		c-2.5,0-6.1-0.9-7.8-3.8h-0.1V423h-4V389.5z M484.1,392.4c-5.3,0-7.4,4.6-7.4,9.1c0,4.8,2.2,9.2,7.6,9.2c5.4,0,7.3-4.6,7.3-9.4
		C491.6,396.8,489.3,392.4,484.1,392.4"/>
	<path class="st0" d="M522,413.6c-0.7,0.4-1.6,0.7-2.9,0.7c-2.1,0-3.4-1.1-3.4-3.7c-2.2,2.6-5.2,3.7-8.5,3.7c-4.4,0-8-2-8-6.8
		c0-5.5,4.1-6.7,8.2-7.4c4.4-0.8,8.2-0.6,8.2-3.6c0-3.5-2.9-4-5.4-4c-3.4,0-5.9,1-6,4.6h-4c0.2-6,4.9-8.1,10.3-8.1
		c4.4,0,9.1,1,9.1,6.7V408c0,1.9,0,2.7,1.3,2.7c0.3,0,0.7,0,1.2-0.2V413.6z M515.5,401.2c-1.5,1.1-4.6,1.2-7.2,1.6
		c-2.6,0.5-4.9,1.4-4.9,4.4c0,2.6,2.2,3.6,4.7,3.6c5.2,0,7.4-3.3,7.4-5.5V401.2z"/>
	<path class="st0" d="M525.7,389.5h3.7v3.8h0.1c1.7-3,4.4-4.4,7.9-4.4c6.4,0,8.3,3.7,8.3,8.9v15.9h-4v-16.4c0-3-1.9-4.9-4.9-4.9
		c-4.8,0-7.2,3.2-7.2,7.6v13.7h-4V389.5z"/>
	<path class="st0" d="M561.3,417c-1.8,4.7-3.5,6.5-7,6.5c-0.9,0-1.9-0.1-2.8-0.4v-3.7c0.8,0.2,1.5,0.6,2.3,0.6
		c1.6,0,2.5-0.8,3.3-2.2l1.6-4.1l-9.6-24.1h4.5l7.1,19.8h0.1l6.8-19.8h4.2L561.3,417z"/>
</g>
</svg>
