<svg id="Calque_1" data-name="Calque 1" xmlns="http://www.w3.org/2000/svg" viewBox="0 0 280.39 280.39"><defs><style>.cls-1{fill:#00ade9;}.cls-2{fill:#fff;}</style></defs><rect class="cls-1" width="280.39" height="280.39"/><path class="cls-2" d="M54.26,84.85H72.5v19.26H89.18V84.85h18.24v54.56H89.18V119.85H72.5v19.56H54.26Z" transform="translate(0 0)"/><path class="cls-2" d="M118.26,112.29v-.16c0-16.29,12.7-28.45,29-28.45,12,0,20.11,5.85,24.71,14.19l-15,8.81c-2-3.9-4.92-6.63-9.9-6.63-6.16,0-10.21,5.38-10.21,11.93v.15c0,7.1,4.21,12.08,10.21,12.08,5.14,0,8-2.8,10.29-6.85l15,8.49c-4.6,8.11-12.24,14.73-25.8,14.73C131.43,140.58,118.26,129.2,118.26,112.29Z" transform="translate(0 0)"/><path class="cls-2" d="M181.7,84.85h18.24v39h25.64v15.59H181.7Z" transform="translate(0 0)"/><path class="cls-2" d="M54.49,159.72H59v4.77h4.13v-4.77h4.52v13.52H63.14v-4.85H59v4.85H54.49Z" transform="translate(0 0)"/><path class="cls-2" d="M68.89,166.52v0a7.16,7.16,0,0,1,7.4-7,7.09,7.09,0,0,1,7.36,7v0a7.39,7.39,0,0,1-14.76,0Zm10.2,0v0a2.89,2.89,0,0,0-2.84-3,2.86,2.86,0,0,0-2.8,3v0a2.89,2.89,0,0,0,2.84,3.05A2.85,2.85,0,0,0,79.09,166.52Z" transform="translate(0 0)"/><path class="cls-2" d="M83.67,171.21l2.41-2.88a7.76,7.76,0,0,0,4.73,1.59c.82,0,1.16-.22,1.16-.58v0c0-.39-.42-.6-1.87-.89-3-.62-5.7-1.49-5.7-4.35v0c0-2.57,2-4.55,5.74-4.55a9.31,9.31,0,0,1,6.1,1.85L94,164.37A7.13,7.13,0,0,0,90,163c-.67,0-1,.23-1,.56v0c0,.37.37.6,1.79.87,3.46.64,5.78,1.64,5.78,4.36v0c0,2.84-2.34,4.58-6,4.58A10.42,10.42,0,0,1,83.67,171.21Z" transform="translate(0 0)"/><path class="cls-2" d="M97.61,159.72h6.08c3.6,0,6,1.6,6,4.81v0c0,3.26-2.49,5-6.14,5h-1.47v3.67H97.61Zm5.74,6.62c1.16,0,1.93-.52,1.93-1.48v0c0-1-.72-1.49-1.91-1.49h-1.24v3Z" transform="translate(0 0)"/><path class="cls-2" d="M110.74,159.72h4.52v13.52h-4.52Z" transform="translate(0 0)"/><path class="cls-2" d="M116.53,166.52v0a7,7,0,0,1,7.19-7,6.64,6.64,0,0,1,6.12,3.51l-3.73,2.19a2.62,2.62,0,0,0-2.45-1.65,2.7,2.7,0,0,0-2.53,3v0c0,1.76,1,3,2.53,3a2.76,2.76,0,0,0,2.55-1.7l3.73,2.11a7.17,7.17,0,0,1-13.41-3.36Z" transform="translate(0 0)"/><path class="cls-2" d="M130.8,159.72h11.54v3.71h-7.09v1.37h6.6v3.26h-6.6v1.47h7.18v3.71H130.8Z" transform="translate(0 0)"/><path class="cls-2" d="M142.52,171.21l2.42-2.88a7.76,7.76,0,0,0,4.73,1.59c.81,0,1.16-.22,1.16-.58v0c0-.39-.42-.6-1.87-.89-3-.62-5.7-1.49-5.7-4.35v0c0-2.57,2-4.55,5.74-4.55a9.35,9.35,0,0,1,6.1,1.85l-2.2,3.05a7.15,7.15,0,0,0-4.06-1.33c-.68,0-1,.23-1,.56v0c0,.37.36.6,1.79.87,3.46.64,5.78,1.64,5.78,4.36v0c0,2.84-2.34,4.58-6,4.58A10.45,10.45,0,0,1,142.52,171.21Z" transform="translate(0 0)"/><path class="cls-2" d="M161.06,166.52v0a7,7,0,0,1,7.19-7,6.64,6.64,0,0,1,6.12,3.51l-3.73,2.19a2.62,2.62,0,0,0-2.45-1.65,2.69,2.69,0,0,0-2.53,3v0c0,1.76,1,3,2.53,3a2.76,2.76,0,0,0,2.55-1.7l3.73,2.11a7.17,7.17,0,0,1-13.41-3.36Z" transform="translate(0 0)"/><path class="cls-2" d="M175.37,159.72h4.52v13.52h-4.52Z" transform="translate(0 0)"/><path class="cls-2" d="M180.49,159.72h5.06l2.63,7.59,2.62-7.59h5l-5.49,13.62H186Z" transform="translate(0 0)"/><path class="cls-2" d="M196.38,159.72h4.52v13.52h-4.52Z" transform="translate(0 0)"/><path class="cls-2" d="M202.48,159.72H207v9.66h6.36v3.86H202.48Z" transform="translate(0 0)"/><path class="cls-2" d="M213.22,171.21l2.41-2.88a7.77,7.77,0,0,0,4.74,1.59c.81,0,1.15-.22,1.15-.58v0c0-.39-.42-.6-1.87-.89-3-.62-5.7-1.49-5.7-4.35v0c0-2.57,2-4.55,5.74-4.55a9.31,9.31,0,0,1,6.1,1.85l-2.2,3.05a7.13,7.13,0,0,0-4.06-1.33c-.67,0-1,.23-1,.56v0c0,.37.37.6,1.8.87,3.45.64,5.77,1.64,5.77,4.36v0c0,2.84-2.34,4.58-6,4.58A10.42,10.42,0,0,1,213.22,171.21Z" transform="translate(0 0)"/><path class="cls-2" d="M54.49,182.89h5.18c5.37,0,8,2.65,8,6.64v0c0,4-2.74,6.84-8.21,6.84h-5Zm5.27,9.58c2.07,0,3.4-.85,3.4-2.8v0c0-1.95-1.33-2.8-3.4-2.8H59v5.64Z" transform="translate(0 0)"/><path class="cls-2" d="M69,182.89H80.48v3.71H73.4V188H80v3.27H73.4v1.46h7.18v3.71H69Z" transform="translate(0 0)"/><path class="cls-2" d="M86.7,182.89h4.52v9.66h6.35v3.86H86.7Z" transform="translate(0 0)"/><path class="cls-2" d="M100.06,191.62,95,182.89H100l2.32,4.44,2.34-4.44h5l-5.1,8.67v4.85h-4.52Z" transform="translate(0 0)"/><path class="cls-2" d="M108.48,189.69v0a7.39,7.39,0,0,1,14.76,0v0a7.39,7.39,0,0,1-14.76,0Zm10.2,0v0a2.89,2.89,0,0,0-2.84-3.05,2.85,2.85,0,0,0-2.8,3v0a2.89,2.89,0,0,0,2.84,3A2.85,2.85,0,0,0,118.68,189.69Z" transform="translate(0 0)"/><path class="cls-2" d="M124.47,182.89h4.23l4.81,6v-6H138v13.52h-4l-5-6.24v6.24h-4.48Z" transform="translate(0 0)"/></svg>